<?xml version="1.0" ?>
<!-- Uploaded to: SVG Repo, www.svgrepo.com, Generator: SVG Repo Mixer Tools -->
<svg width="800px" height="800px" viewBox="0 0 512 512" version="1.1" xml:space="preserve" xmlns="http://www.w3.org/2000/svg" xmlns:xlink="http://www.w3.org/1999/xlink">
<style type="text/css">
	.st0{display:none;}
	.st1{display:inline;}
	.st2{fill:none;stroke:#B3B3B3;stroke-miterlimit:10;}
	.st3{fill:none;stroke:#ED1C24;stroke-miterlimit:10;}
	.st4{fill:#F9C04A;}
	.st5{fill:#FFFFFF;stroke:#000000;stroke-width:10;stroke-linecap:round;stroke-linejoin:round;stroke-miterlimit:10;}
	.st6{fill:#DEF6FC;}
	.st7{fill:#FFDA9F;}
	.st8{fill:#FFFFFF;}
	.st9{fill:#FF5751;}
	.st10{fill:#FF908A;}
	.st11{fill:#133260;}
	.st12{fill:#7782BB;}
	.st13{fill:#96A5D6;}
	.st14{fill:#FF5741;}
	.st15{fill:#43527A;}
	.st16{fill:#5E7296;}
	.st17{fill:none;stroke:#133260;stroke-width:9;stroke-linecap:round;stroke-linejoin:round;stroke-miterlimit:10;}
	.st18{fill:#83D689;}
	.st19{fill:#B5F4B8;}
	.st20{fill:#9BC5FF;}
	.st21{fill:#B8D8FF;}
	.st22{fill:#F24133;}
	.st23{fill:#589FFF;}
	.st24{fill:#7180BC;}
	.st25{fill:#93A3D8;}
	.st26{fill:#FF8103;}
	.st27{fill:#FF9D4D;}
	.st28{fill:#BC8D66;}
	.st29{fill:#CEA282;}
	.st30{fill:#FFDDA1;}
	.st31{fill:#FFF1DC;}
	.st32{fill:#7F6674;}
	.st33{fill:#937A89;}
	.st34{fill:#04398E;}
	.st35{fill:#A6D1FF;}
	.st36{fill:#EAA62D;}
	.st37{fill:#C5DFFF;}
	.st38{fill:#D6A47F;}
	.st39{fill:#99A4D6;}
</style>
<g class="st0" id="Layer_31">
<g class="st1">
<g>
<g>
<ellipse class="st2" cx="256" cy="256" rx="248.1" ry="248.3"/>
<path class="st2" d="M398.8,504.5H113.2c-18.8,0-34.1-15.3-34.1-34.1V41.6c0-18.8,15.3-34.1,34.1-34.1h285.5      c18.8,0,34.1,15.3,34.1,34.1v428.9C432.9,489.3,417.6,504.5,398.8,504.5z"/>
<path class="st2" d="M7.9,399.8V112.2c0-16.4,13.3-29.8,29.8-29.8h436.7c16.4,0,29.8,13.3,29.8,29.8v287.6      c0,16.4-13.3,29.8-29.8,29.8H37.6C21.2,429.6,7.9,416.2,7.9,399.8z"/>
<path class="st2" d="M440.4,469.9H71.6c-16.4,0-29.8-13.3-29.8-29.8V71.9c0-16.4,13.3-29.8,29.8-29.8h368.8      c16.4,0,29.8,13.3,29.8,29.8v368.2C470.2,456.5,456.8,469.9,440.4,469.9z"/>
</g>
<rect class="st3" height="497" transform="matrix(-1.836970e-16 1 -1 -1.836970e-16 512 5.684342e-14)" width="497" x="7.5" y="7.5"/>
</g>
</g>
</g>
<g id="Layer_32">
<g>
<g>
<g>
<g>
<path class="st15" d="M473.7,169.2L281.4,13.5c-14.8-12-36-12-50.8,0L38.3,169.2c-14.9,12.1-23.6,30.2-23.6,49.4v0v259       c0,16.5,13.4,30,30,30h422.6c16.5,0,30-13.4,30-30v-259v0C497.3,199.4,488.6,181.2,473.7,169.2z"/>
<path class="st16" d="M40,489.6v-259c0-19.2,8.7-37.3,23.6-49.4L255.8,25.6c8.6-7,19.3-9.9,29.8-8.8l-4.2-3.4       c-14.8-12-36-12-50.8,0L38.3,169.2c-14.9,12.1-23.6,30.2-23.6,49.4v259c0,16.5,13.4,30,30,30h1.2C42.2,502.5,40,496.3,40,489.6       z"/>
<g>
<path class="st23" d="M491.9,193L280.6,364c-14.4,11.6-34.9,11.6-49.2,0L20.1,193c-3.5,8-5.4,16.7-5.4,25.6v0v259        c0,16.5,13.4,30,30,30h422.6c16.5,0,30-13.4,30-30v-259v0C497.3,209.6,495.4,200.9,491.9,193z"/>
</g>
<path class="st20" d="M40,230.7c0-6.6,1-13.1,3-19.2L20.1,193c0,0.1-0.1,0.1-0.1,0.2c-3.4,7.9-5.3,16.5-5.3,25.4v259       c0,16.5,13.4,30,30,30h1.2c-3.7-5-5.9-11.1-5.9-17.8V230.7z"/>
</g>
<path class="st6" d="M231.4,364c14.4,11.6,34.9,11.6,49.2,0l165.5-134V82.4c0-19.2-15.6-34.8-34.8-34.8H100.7      c-19.2,0-34.8,15.6-34.8,34.8V230L231.4,364z"/>
<g>
<path class="st8" d="M90.3,82.4c0-19.2,15.6-34.8,34.8-34.8h-24.4c-19.2,0-34.8,15.6-34.8,34.8V230l24.4,19.8V82.4z"/>
</g>
</g>
<path class="st14" d="M270.1,103.3L270.1,103.3c4.7,7.3,14.2,9.9,21.9,5.9l0,0c10.9-5.7,23.9,1.9,24.5,14.1v0     c0.4,8.7,7.3,15.6,16,16h0c12.2,0.5,19.8,13.6,14.1,24.5v0c-4,7.7-1.5,17.2,5.9,21.9l0,0c10.3,6.6,10.3,21.7,0,28.3l0,0     c-7.3,4.7-9.9,14.2-5.9,21.9v0c5.7,10.9-1.9,23.9-14.1,24.5h0c-8.7,0.4-15.6,7.3-16,16v0c-0.5,12.2-13.6,19.8-24.5,14.1l0,0     c-7.7-4-17.2-1.5-21.9,5.9l0,0c-6.6,10.3-21.7,10.3-28.3,0l0,0c-4.7-7.3-14.2-9.9-21.9-5.9l0,0c-10.9,5.7-23.9-1.9-24.5-14.1v0     c-0.4-8.7-7.3-15.6-16-16h0c-12.2-0.5-19.8-13.6-14.1-24.5l0,0c4-7.7,1.5-17.2-5.9-21.9l0,0c-10.3-6.6-10.3-21.7,0-28.3l0,0     c7.3-4.7,9.9-14.2,5.9-21.9l0,0c-5.7-10.9,1.9-23.9,14.1-24.5h0c8.7-0.4,15.6-7.3,16-16v0c0.5-12.2,13.6-19.8,24.5-14.1l0,0     c7.7,4,17.2,1.5,21.9-5.9l0,0C248.5,93,263.5,93,270.1,103.3z"/>
<g>
<path class="st10" d="M266.1,98.9c-7.5-5.6-18.8-4.2-24.2,4.4v0c-0.7,1.1-1.5,2-2.3,2.9C247.9,102.6,256.8,100.1,266.1,98.9z"/>
<path class="st10" d="M177.7,199.8c0-38.2,21.1-71.5,52.2-88.9c-3.3,0.4-6.8-0.1-9.9-1.7l0,0c-10.9-5.7-23.9,1.9-24.5,14.1      c-0.4,8.7-7.3,15.6-16,16h0c-12.2,0.5-19.8,13.6-14.1,24.5c4,7.7,1.5,17.2-5.9,21.9v0c-10.3,6.6-10.3,21.7,0,28.3l0,0      c7.3,4.7,9.9,14.2,5.9,21.9v0c-5.7,10.9,1.9,23.9,14.1,24.5h0c8.7,0.4,15.6,7.3,16,16v0c0.5,12.2,13.6,19.8,24.5,14.1l0,0      c3.2-1.6,6.6-2.2,9.9-1.7C198.8,271.3,177.7,238,177.7,199.8z"/>
<path class="st10" d="M239.6,293.4c0.9,0.9,1.6,1.8,2.3,2.9v0c5.5,8.6,16.8,10,24.2,4.4C256.8,299.4,247.9,296.9,239.6,293.4z"/>
</g>
<g>
<path class="st11" d="M207.7,185.1v-20.3c0-11.6,7.6-16,17.4-16c9.7,0,17.4,4.3,17.4,16v20.3c0,11.6-7.7,16-17.4,16      C215.3,201,207.7,196.7,207.7,185.1z M234.5,164.8c0-5.9-3.5-8.8-9.3-8.8c-5.8,0-9.3,2.8-9.3,8.8v20.3c0,5.9,3.5,8.8,9.3,8.8      c5.8,0,9.3-2.8,9.3-8.8V164.8z M284.5,148c0,0.7-0.1,1.2-0.4,1.9l-50.6,99.6c-0.7,1.5-2.2,2.2-3.8,2.2c-2.4,0-4.3-1.9-4.3-4.1      c0-0.5,0.1-1.2,0.4-1.8l50.7-100.3c0.7-1.4,2-2,3.4-2C282.1,143.5,284.5,145.4,284.5,148z M266.5,232.1v-20.3      c0-11.6,7.6-16,17.4-16c9.7,0,17.4,4.3,17.4,16v20.3c0,11.6-7.7,16-17.4,16C274.1,248.1,266.5,243.7,266.5,232.1z M293.3,211.8      c0-5.9-3.5-8.8-9.3-8.8c-5.8,0-9.3,2.8-9.3,8.8v20.3c0,5.9,3.5,8.8,9.3,8.8c5.8,0,9.3-2.8,9.3-8.8V211.8z"/>
</g>
</g>
<g>
<path class="st11" d="M476.6,165.6l-25.9-20.9V82.4c0-21.7-17.7-39.4-39.4-39.4h-86.2L284.3,9.9c-16.4-13.3-40.2-13.3-56.5,0     L186.9,43h-86.2C79,43,61.3,60.7,61.3,82.4v62.3l-25.9,20.9c-16,13-25.2,32.3-25.2,52.9v259c0,9.8,4.1,18.6,10.6,24.9     c0.1,0.1,0.3,0.3,0.4,0.4c6.2,5.7,14.4,9.2,23.4,9.2h422.6c9,0,17.3-3.5,23.4-9.2c0.2-0.1,0.3-0.3,0.4-0.4     c6.6-6.3,10.6-15.1,10.6-24.9v-259C501.8,197.9,492.6,178.6,476.6,165.6z M450.7,156.4l20.1,16.3c6.5,5.3,11.7,11.7,15.4,18.9     l-35.5,28.8V156.4z M233.5,17c13.1-10.6,32-10.6,45.1,0l32.1,26H201.3L233.5,17z M70.4,82.4c0-16.7,13.6-30.3,30.3-30.3h87.7     c0,0,0,0,0,0h222.9c16.7,0,30.3,13.6,30.3,30.3v145.4L299.9,342.5c0,0,0,0-0.1,0.1l-22,17.8c-12.6,10.2-30.9,10.2-43.5,0     l-22-17.8c0,0-0.1,0-0.1-0.1L70.4,227.8V82.4z M41.2,172.7l20.1-16.3v64l-35.5-28.8C29.4,184.4,34.7,178,41.2,172.7z M19.3,477.5     v-259c0-6.2,1-12.3,2.8-18.1l180,145.7L24.6,493C21.3,488.7,19.3,483.3,19.3,477.5z M467.3,502.9H44.7c-4.8,0-9.4-1.4-13.2-3.7     L209.3,352l19.2,15.5c0.1,0.1,0.2,0.2,0.4,0.3c0.2,0.1,0.3,0.3,0.5,0.4c0.8,0.6,1.6,1.2,2.5,1.8c0.1,0.1,0.2,0.1,0.2,0.2     c0.2,0.1,0.4,0.3,0.6,0.4c0.2,0.1,0.3,0.2,0.5,0.3c0.2,0.1,0.3,0.2,0.5,0.3c6.9,4.1,14.6,6.1,22.4,6.1c2.8,0,5.7-0.3,8.5-0.8     c0.1,0,0.2,0,0.4-0.1c0.8-0.2,1.6-0.3,2.3-0.5c0.3-0.1,0.5-0.1,0.8-0.2c0.2-0.1,0.4-0.1,0.6-0.2c0.1,0,0.2-0.1,0.3-0.1     c0.2-0.1,0.4-0.1,0.6-0.2c0.1,0,0.2-0.1,0.3-0.1c0.2-0.1,0.3-0.1,0.5-0.2c0.5-0.2,0.9-0.3,1.4-0.5c0.1,0,0.2-0.1,0.3-0.1     c1.8-0.7,3.6-1.5,5.4-2.5c0.1-0.1,0.3-0.2,0.4-0.2c0.3-0.2,0.5-0.3,0.8-0.5c1.8-1,3.4-2.2,5.1-3.5l19.2-15.5l177.9,147.2     C476.7,501.5,472.2,502.9,467.3,502.9z M492.7,477.5c0,5.8-2,11.2-5.3,15.5L309.9,346.1l180-145.7c1.9,5.8,2.8,11.9,2.8,18.1     V477.5z"/>
<path class="st11" d="M238,298.7c3.9,6.2,10.7,9.9,18,9.9c7.3,0,14-3.7,18-9.9c3.4-5.4,10.3-7.2,15.9-4.3     c6.5,3.4,14.2,3.2,20.5-0.5c6.3-3.7,10.3-10.2,10.6-17.5c0.3-6.4,5.3-11.4,11.7-11.7c7.3-0.3,13.9-4.3,17.5-10.6     c3.7-6.3,3.8-14,0.5-20.5c-2.9-5.7-1.1-12.5,4.3-15.9c6.2-3.9,9.9-10.7,9.9-18s-3.7-14-9.9-18c-5.4-3.4-7.2-10.3-4.3-15.9     c3.4-6.5,3.2-14.2-0.5-20.5c-3.7-6.3-10.2-10.3-17.5-10.6c-6.4-0.3-11.4-5.3-11.7-11.7c-0.3-7.3-4.3-13.9-10.6-17.5     c-6.3-3.7-14-3.8-20.5-0.5c-5.7,2.9-12.5,1.1-15.9-4.3c0,0,0,0,0,0c-3.9-6.2-10.7-9.9-18-9.9c-7.3,0-14,3.7-18,9.9     c-3.4,5.4-10.3,7.2-15.9,4.3c-6.5-3.4-14.2-3.2-20.5,0.5c-6.3,3.7-10.3,10.2-10.6,17.5c-0.3,6.4-5.3,11.4-11.7,11.7     c-7.3,0.3-13.9,4.3-17.5,10.6c-3.7,6.3-3.8,14-0.5,20.5c2.9,5.7,1.1,12.5-4.3,15.9c-6.2,3.9-9.9,10.7-9.9,18s3.7,14,9.9,18     c5.4,3.4,7.2,10.3,4.3,15.9c-3.4,6.5-3.2,14.2,0.5,20.5c3.7,6.3,10.2,10.3,17.5,10.6c6.4,0.3,11.4,5.3,11.7,11.7     c0.3,7.3,4.3,13.9,10.6,17.5c6.3,3.7,14,3.8,20.5,0.5C227.8,291.5,234.6,293.3,238,298.7z M206.2,286.1c-3.7-2.1-5.9-5.8-6.1-10     c-0.5-11.1-9.2-19.9-20.4-20.4c-4.3-0.2-7.9-2.4-10-6.1s-2.2-8-0.3-11.7c5.1-9.9,1.9-21.8-7.5-27.8c-3.6-2.3-5.6-6-5.6-10.3     c0-4.3,2.1-8,5.6-10.3c9.4-6,12.6-17.9,7.5-27.8c-2-3.8-1.9-8.1,0.3-11.7c2.1-3.7,5.8-5.9,10-6.1c11.1-0.5,19.9-9.2,20.4-20.4     c0.2-4.3,2.4-7.9,6.1-10c3.7-2.1,8-2.2,11.7-0.3c9.9,5.1,21.8,1.9,27.8-7.5c2.3-3.6,6-5.6,10.3-5.6c4.3,0,8,2.1,10.3,5.6     c6,9.4,17.9,12.6,27.8,7.5c3.8-2,8.1-1.9,11.7,0.3c3.7,2.1,5.9,5.8,6.1,10c0.5,11.1,9.2,19.9,20.4,20.4c4.3,0.2,7.9,2.4,10,6.1     c2.1,3.7,2.2,8,0.3,11.7c-5.1,9.9-1.9,21.8,7.4,27.8c3.6,2.3,5.6,6,5.6,10.3c0,4.3-2.1,8-5.6,10.3c-9.4,6-12.6,17.9-7.4,27.8     c2,3.8,1.9,8.1-0.3,11.7s-5.8,5.9-10,6.1c-11.1,0.5-19.9,9.2-20.4,20.4c-0.2,4.3-2.4,7.9-6.1,10c-3.7,2.1-8,2.2-11.7,0.3     c-9.9-5.1-21.8-1.9-27.8,7.4c-2.3,3.6-6,5.6-10.3,5.6c-4.3,0-8-2.1-10.3-5.6c-4.1-6.4-10.9-9.9-17.9-9.9c-3.3,0-6.7,0.8-9.9,2.4     C214.1,288.3,209.8,288.2,206.2,286.1z"/>
</g>
</g>
</g>
</svg>