<?xml version="1.0" ?>
<!-- Uploaded to: SVG Repo, www.svgrepo.com, Generator: SVG Repo Mixer Tools -->
<svg width="800px" height="800px" viewBox="0 0 512 512" version="1.1" xml:space="preserve" xmlns="http://www.w3.org/2000/svg" xmlns:xlink="http://www.w3.org/1999/xlink">
<style type="text/css">
	.st0{display:none;}
	.st1{display:inline;}
	.st2{fill:none;stroke:#B3B3B3;stroke-miterlimit:10;}
	.st3{fill:none;stroke:#ED1C24;stroke-miterlimit:10;}
	.st4{fill:#F9C04A;}
	.st5{fill:#FFFFFF;stroke:#000000;stroke-width:10;stroke-linecap:round;stroke-linejoin:round;stroke-miterlimit:10;}
	.st6{fill:#DEF6FC;}
	.st7{fill:#FFDA9F;}
	.st8{fill:#FFFFFF;}
	.st9{fill:#FF5751;}
	.st10{fill:#FF908A;}
	.st11{fill:#133260;}
	.st12{fill:#7782BB;}
	.st13{fill:#96A5D6;}
	.st14{fill:#FF5741;}
	.st15{fill:#43527A;}
	.st16{fill:#5E7296;}
	.st17{fill:none;stroke:#133260;stroke-width:9;stroke-linecap:round;stroke-linejoin:round;stroke-miterlimit:10;}
	.st18{fill:#83D689;}
	.st19{fill:#B5F4B8;}
	.st20{fill:#9BC5FF;}
	.st21{fill:#B8D8FF;}
	.st22{fill:#F24133;}
	.st23{fill:#589FFF;}
	.st24{fill:#7180BC;}
	.st25{fill:#93A3D8;}
	.st26{fill:#FF8103;}
	.st27{fill:#FF9D4D;}
	.st28{fill:#BC8D66;}
	.st29{fill:#CEA282;}
	.st30{fill:#FFDDA1;}
	.st31{fill:#FFF1DC;}
	.st32{fill:#7F6674;}
	.st33{fill:#937A89;}
	.st34{fill:#04398E;}
	.st35{fill:#A6D1FF;}
	.st36{fill:#EAA62D;}
	.st37{fill:#C5DFFF;}
	.st38{fill:#D6A47F;}
	.st39{fill:#99A4D6;}
</style>
<g class="st0" id="Layer_31">
<g class="st1">
<g>
<g>
<ellipse class="st2" cx="256" cy="256" rx="248.1" ry="248.3"/>
<path class="st2" d="M398.8,504.5H113.2c-18.8,0-34.1-15.3-34.1-34.1V41.6c0-18.8,15.3-34.1,34.1-34.1h285.5      c18.8,0,34.1,15.3,34.1,34.1v428.9C432.9,489.3,417.6,504.5,398.8,504.5z"/>
<path class="st2" d="M7.9,399.8V112.2c0-16.4,13.3-29.8,29.8-29.8h436.7c16.4,0,29.8,13.3,29.8,29.8v287.6      c0,16.4-13.3,29.8-29.8,29.8H37.6C21.2,429.6,7.9,416.2,7.9,399.8z"/>
<path class="st2" d="M440.4,469.9H71.6c-16.4,0-29.8-13.3-29.8-29.8V71.9c0-16.4,13.3-29.8,29.8-29.8h368.8      c16.4,0,29.8,13.3,29.8,29.8v368.2C470.2,456.5,456.8,469.9,440.4,469.9z"/>
</g>
<rect class="st3" height="497" transform="matrix(-1.836970e-16 1 -1 -1.836970e-16 512 5.684342e-14)" width="497" x="7.5" y="7.5"/>
</g>
</g>
</g>
<g id="Layer_32">
<g>
<g>
<g>
<rect class="st4" height="80.8" width="51" x="230.5" y="28.6"/>
<g>
<path class="st15" d="M343.3,221.8L302,188.7L382.9,88c7.1-8.8,19.9-10.2,28.7-3.1l9.4,7.6c8.8,7.1,10.2,19.9,3.1,28.7       L343.3,221.8z"/>
<path class="st15" d="M168.7,221.8l41.2-33.1L129.1,88c-7.1-8.8-19.9-10.2-28.7-3.1L91,92.4c-8.8,7.1-10.2,19.9-3.1,28.7       L168.7,221.8z"/>
</g>
<circle class="st20" cx="256" cy="295.2" r="212.3"/>
<path class="st21" d="M69,295.2c0-113,88.3-205.4,199.7-211.9c-4.2-0.2-8.4-0.4-12.6-0.4c-117.2,0-212.3,95-212.3,212.3      s95,212.3,212.3,212.3c4.2,0,8.4-0.1,12.6-0.4C157.3,500.5,69,408.2,69,295.2z"/>
<circle class="st6" cx="256" cy="295.2" r="165.3"/>
<path class="st8" d="M116,295.2c0-87,67.3-158.3,152.6-164.8c-4.2-0.3-8.4-0.5-12.6-0.5c-91.3,0-165.3,74-165.3,165.3      c0,91.3,74,165.3,165.3,165.3c4.2,0,8.5-0.2,12.6-0.5C183.2,453.5,116,382.2,116,295.2z"/>
<path class="st14" d="M306,52.6H206c-6.4,0-11.5-5.2-11.5-11.5v-25c0-6.4,5.2-11.5,11.5-11.5h100c6.4,0,11.5,5.2,11.5,11.5v25      C317.5,47.5,312.4,52.6,306,52.6z"/>
<path class="st10" d="M206,4.6c-6.4,0-11.5,5.2-11.5,11.5v25c0,6.4,5.2,11.5,11.5,11.5h14V4.6H206z"/>
</g>
<g>
<path class="st11" d="M176.4,265.6v-36.4c0-18.7,12.3-26,28.1-26s28.1,7.3,28.1,26v36.4c0,18.9-12.3,26-28.1,26      S176.4,284.5,176.4,265.6z M223,229.1c0-11.8-6.9-17-18.4-17c-11.3,0-18.2,5.2-18.2,17v36.4c0,11.8,6.9,17,18.2,17      c11.6,0,18.4-5.2,18.4-17V229.1z M306.2,199.8c0,0.9-0.2,1.7-0.7,2.6l-90.8,175.9c-0.9,2.1-2.8,3.1-4.7,3.1c-2.6,0-5-2.1-5-4.5      c0-0.9,0-1.7,0.5-2.6L297,196.8c0.7-1.9,2.4-2.4,3.8-2.4C303.1,194.4,306.2,196.5,306.2,199.8z M276.6,350.7v-36.4      c0-18.7,12.3-26,28.1-26c15.8,0,28.1,7.3,28.1,26v36.4c0,18.9-12.3,26-28.1,26C288.9,376.7,276.6,369.6,276.6,350.7z       M323.2,314.3c0-11.8-6.9-17-18.4-17c-11.3,0-18.2,5.2-18.2,17v36.4c0,11.8,6.9,17,18.2,17c11.6,0,18.4-5.2,18.4-17V314.3z"/>
</g>
</g>
<g>
<path class="st11" d="M215.4,14.7c-2.5,0-4.6,2-4.6,4.6v16.4c0,2.5,2,4.6,4.6,4.6c2.5,0,4.6-2,4.6-4.6V19.2     C220,16.7,217.9,14.7,215.4,14.7z"/>
<path class="st11" d="M242.5,14.7c-2.5,0-4.6,2-4.6,4.6v16.4c0,2.5,2,4.6,4.6,4.6s4.6-2,4.6-4.6V19.2     C247,16.7,245,14.7,242.5,14.7z"/>
<path class="st11" d="M269.5,14.7c-2.5,0-4.6,2-4.6,4.6v16.4c0,2.5,2,4.6,4.6,4.6s4.6-2,4.6-4.6V19.2     C274.1,16.7,272,14.7,269.5,14.7z"/>
<path class="st11" d="M296.6,14.7c-2.5,0-4.6,2-4.6,4.6v16.4c0,2.5,2,4.6,4.6,4.6s4.6-2,4.6-4.6V19.2     C301.2,16.7,299.1,14.7,296.6,14.7z"/>
<path class="st11" d="M411.5,144.1l16.2-20.1c8.6-10.7,6.9-26.5-3.8-35.1l-9.4-7.6c-10.7-8.6-26.5-6.9-35.1,3.8l-16.9,21     c-23.5-13.3-49.4-22.1-76.4-25.8V57.2h20c8.9,0,16.1-7.2,16.1-16.1v-25C322.1,7.2,314.9,0,306,0H206c-8.9,0-16.1,7.2-16.1,16.1     v25c0,8.9,7.2,16.1,16.1,16.1h20v23.2c-27.1,3.7-52.9,12.5-76.4,25.8l-16.9-21c-4.2-5.2-10.1-8.5-16.7-9.2     c-6.6-0.7-13.1,1.2-18.3,5.3l-9.4,7.6c-10.7,8.6-12.4,24.4-3.8,35.1l16.2,20.1c-39.5,40.7-61.3,94.2-61.3,151.1     c0,57.9,22.6,112.4,63.5,153.3c41,41,95.4,63.5,153.3,63.5s112.4-22.6,153.3-63.5c41-41,63.5-95.4,63.5-153.3     C472.8,238.3,451.1,184.8,411.5,144.1z M386.5,90.8c5.5-6.8,15.5-7.9,22.3-2.4l9.4,7.6c3.3,2.6,5.4,6.4,5.8,10.6     c0.5,4.2-0.7,8.3-3.4,11.6L405,137.7c-10.7-10.2-22.3-19.1-34.6-26.8L386.5,90.8z M206,48.1c-3.8,0-7-3.1-7-7v-25     c0-3.8,3.1-7,7-7h100c3.8,0,7,3.1,7,7v25c0,3.8-3.1,7-7,7H206z M276.9,57.2v22.1c-6.9-0.7-13.9-1-20.9-1c-7,0-14,0.3-20.9,1V57.2     H276.9z M91.4,118.2c-2.7-3.3-3.9-7.4-3.4-11.6c0.5-4.2,2.5-8,5.8-10.6l9.4-7.6c3.3-2.6,7.4-3.9,11.6-3.4c4.2,0.5,8,2.5,10.6,5.8     l16.1,20c-12.3,7.7-23.9,16.6-34.6,26.8L91.4,118.2z M256,502.9c-114.5,0-207.7-93.2-207.7-207.7c0-114.5,93.2-207.7,207.7-207.7     s207.7,93.2,207.7,207.7C463.7,409.7,370.5,502.9,256,502.9z"/>
<path class="st11" d="M256,125.4c-93.6,0-169.8,76.2-169.8,169.8C86.2,388.8,162.4,465,256,465s169.8-76.2,169.8-169.8     C425.8,201.5,349.6,125.4,256,125.4z M256,455.9c-88.6,0-160.7-72.1-160.7-160.7S167.4,134.5,256,134.5s160.7,72.1,160.7,160.7     S344.6,455.9,256,455.9z"/>
</g>
</g>
</g>
</svg>